<svg width="194" height="129" viewBox="0 0 194 129" fill="none" xmlns="http://www.w3.org/2000/svg">
<path d="M0.820557 13.1341V24.3912H36.7327V126.603H62.2165V24.3912H98.1287V13.3413C98.1287 7.12569 98.1287 2.08417 97.8524 1.94604C97.8524 1.73886 75.9598 1.6698 49.371 1.6698L1.02774 1.87698V13.2031L0.820557 13.1341ZM162.218 1.60073C169.262 3.25822 174.649 6.43507 179.483 11.4766C182.039 14.2391 185.837 19.0734 186.113 20.3165C186.113 20.7309 174.166 28.8111 166.914 33.3002C166.638 33.5073 165.533 32.3333 164.428 30.5377C160.837 25.4271 157.176 23.2171 151.444 22.8027C143.157 22.2502 137.632 26.6012 137.632 33.8527C137.632 36.0626 138.046 37.3058 138.875 39.1014C140.74 42.8998 144.193 45.1788 154.897 49.875C174.649 58.3696 183.213 63.9637 188.392 71.9748C194.263 80.9529 195.575 95.0415 191.638 105.608C187.218 117.141 176.445 124.945 161.044 127.501C156.21 128.329 145.16 128.191 139.98 127.293C128.93 125.222 118.364 119.697 111.872 112.583C109.317 109.821 104.413 102.431 104.69 101.948L107.314 100.29L117.673 94.2819L125.477 89.7238L127.273 92.1409C129.552 95.7322 134.662 100.566 137.632 102.224C146.61 106.851 158.627 106.23 164.566 100.843C167.121 98.4946 168.226 96.0084 168.226 92.5553C168.226 89.3785 167.743 87.9282 166.155 85.511C163.945 82.4723 159.525 79.986 147.093 74.4611C132.798 68.3836 126.72 64.5162 121.057 58.5768C117.811 54.9856 114.842 49.3916 113.46 44.7644C112.424 40.7589 112.079 30.9521 113.046 27.0155C116.016 13.2031 126.444 3.53447 141.361 0.771991C146.196 -0.194876 157.591 0.219496 162.356 1.46261L162.218 1.60073Z" fill="white"/>
</svg>
